# xmcd CD database file
#
# Track frame offsets:
#	150
#	31784
#	63417
#
# Disc length: 1267 seconds
#
# Revision: 0
# Processed by: cddbd v1.5.1PL0 Copyright (c) Steve Scherf et al.
# Submitted via: CDex 1.51
#
DISCID=1c04f103
DTITLE=演奏チーム - UMA PARVATI'S LOVE
DYEAR=2004
DGENRE=Dream
TTITLE0=UMA PARVATI'S LOVE
TTITLE1=UMA PARVATI'S LOVE
TTITLE2=UMA PARVATI'S LOVE
EXTD=YEAR: 2004
EXTT0=
EXTT1=
EXTT2=
PLAYORDER=
